<?xml version="1.0" encoding="utf-8"?>
<!-- Generator: Adobe Illustrator 24.1.0, SVG Export Plug-In . SVG Version: 6.00 Build 0)  -->
<svg version="1.1" id="Layer_1" xmlns="http://www.w3.org/2000/svg" xmlns:xlink="http://www.w3.org/1999/xlink" x="0px" y="0px"
	 viewBox="0 0 24 24" style="enable-background:new 0 0 24 24;" xml:space="preserve">
<style type="text/css">
	.st0{fill:#EAEAEA;}
</style>
<path class="st0" d="M16,15.9L16,15.9C15.9,16,15.9,16,15.9,16c-1.3,1.2-3,2-4.9,2s-3.7-0.8-4.9-2.1S4,12.9,4,11s0.8-3.7,2.1-4.9
	S9.1,4,11,4s3.7,0.8,4.9,2.1S18,9.1,18,11S17.3,14.6,16,15.9z M21.7,20.3L18,16.6c1.2-1.5,2-3.5,2-5.6c0-2.5-1-4.7-2.6-6.4
	S13.5,2,11,2S6.3,3,4.6,4.6S2,8.5,2,11s1,4.7,2.6,6.4S8.5,20,11,20c2.1,0,4.1-0.7,5.6-2l3.7,3.7c0.4,0.4,1,0.4,1.4,0
	S22.1,20.7,21.7,20.3z"/>
</svg>
